<?xml version="1.0" standalone="no"?>
<svg viewBox="0 0 200 200" xmlns="http://www.w3.org/2000/svg">
  <path fill="#D3D3D3" d="M38.1,-64.1C48.9,-59.8,56.7,-48.5,66,-36.7C75.3,-24.8,86.2,-12.4,86.5,0.2C86.8,12.7,76.4,25.4,66.8,36.8C57.2,48.2,48.3,58.3,37.3,64C26.3,69.7,13.1,71,2.3,67.1C-8.6,63.2,-17.2,54,-30.9,49.8C-44.5,45.6,-63.2,46.4,-73.8,39C-84.4,31.5,-86.9,15.8,-81.9,2.9C-76.9,-10,-64.3,-19.9,-53.8,-27.5C-43.2,-35,-34.6,-40,-26,-45.5C-17.4,-51,-8.7,-56.8,2.5,-61.2C13.7,-65.5,27.4,-68.3,38.1,-64.1Z" transform="translate(100 100)" />
</svg>
